The Horde(2010)(English)
IMDB Rating-6/10(1.865 votes) 
http://www.imdb.com/title/tt1183276/


Format                           : AVI
Format/Info                      : Audio Video Interleave
File size                        : 952 MiB
Duration                         : 1h 32mn
Overall bit rate                 : 1 433 Kbps

Video
ID                               : 0
Format                           : MPEG-4 Visual
Format settings, BVOP            : Yes
Format settings, QPel            : No
Format settings, GMC             : No warppoints
Format settings, Matrix          : Default (H.263)
Muxing mode                      : Packed bitstream
Codec ID                         : DX50
Codec ID/Hint                    : DivX 5
Duration                         : 1h 32mn
Bit rate                         : 1 039 Kbps
Width                            : 720 pixels
Height                           : 346 pixels
Display aspect ratio             : 2.081
Frame rate                       : 25.000 fps
Resolution                       : 8 bits
Colorimetry                      : 4:2:0
Scan type                        : Progressive
Bits/(Pixel*Frame)               : 0.167
Stream size                      : 690 MiB (73%)
Title                            : Video 
Writing library                  : DivX 3330

Audio
ID                               : 1
Format                           : AC-3
Format/Info                      : Audio Coding 3
Codec ID                         : 2000
Duration                         : 1h 32mn
Bit rate mode                    : Constant
Bit rate                         : 384 Kbps
Channel(s)                       : 6 channels
Channel positions                : Front: L C R, Side: L R, LFE
Sampling rate                    : 48.0 KHz
Stream size                      : 255 MiB (27%)
Alignment                        : Split accross interleaves
Interleave, duration             : 40 ms (1.00 video frame)
Interleave, preload duration     : 500 ms
Title                            : Audio 























[center][img]http://www.horrorphile.net/images/the-horde-movie-poster1.jpg[/img]



[img]http://nfomation.net/nfo.white/1289146380.UniversalAbsurdity.txt.png[/img]

[img]http://leetleech.org/images/76265869125979465637.png[/img]
[img]http://leetleech.org/images/33811288208590927956.png[/img]
[img]http://leetleech.org/images/87032017405281932804.png[/img]
[img]http://leetleech.org/images/94383440210808098066.png[/img]
[img]http://leetleech.org/images/66421780521595874912.png[/img]
[img]http://leetleech.org/images/90228663729548231919.png[/img]
[img]http://leetleech.org/images/13194724668893990268.png[/img][/center]
